<svg id="Layer_1" data-name="Layer 1" xmlns="http://www.w3.org/2000/svg" xmlns:xlink="http://www.w3.org/1999/xlink" viewBox="0 0 23.82476 8.39063"><defs><style>.cls-1{fill:url(#linear-gradient);}.cls-2{font-size:3.98081px;fill:#16714f;}.cls-2,.cls-7{font-family:Montserrat-Bold, Montserrat;font-weight:700;}.cls-3{letter-spacing:-0.05502em;}.cls-4{letter-spacing:0.00024em;}.cls-5{letter-spacing:-0.00416em;}.cls-6{letter-spacing:-0.00709em;}.cls-7{font-size:3.90218px;fill:#ffcc38;}.cls-8{letter-spacing:-0.01497em;}.cls-9{letter-spacing:0.00025em;}.cls-10{letter-spacing:-0.00998em;}</style><linearGradient id="linear-gradient" x1="0.63227" y1="12.79694" x2="8.12507" y2="12.79694" gradientUnits="userSpaceOnUse"><stop offset="0" stop-color="#63c166"/><stop offset="0.24944" stop-color="#5fbf67"/><stop offset="0.52163" stop-color="#51b96c"/><stop offset="0.8035" stop-color="#3cb073"/><stop offset="1" stop-color="#28a779"/></linearGradient></defs><path class="cls-1" d="M6.40461,9.20616H2.35274A1.72046,1.72046,0,0,0,.63227,10.92662v3.74064A1.72085,1.72085,0,0,0,2.017,16.35473v-3.111l1.18588-.64387v3.78783H3.5732V11.12058l1.7219-1.07869v6.34583h.36311V12.1406l1.165.64074L6.84376,16.331a1.721,1.721,0,0,0,1.28131-1.66369V10.92662A1.72046,1.72046,0,0,0,6.40461,9.20616Z" transform="translate(-0.63227 -9.02539)"/><text class="cls-2" transform="translate(9.13196 3.38379)"><tspan class="cls-3">T</tspan><tspan class="cls-4" x="2.24081" y="0">e</tspan><tspan class="cls-5" x="4.75319" y="0">r</tspan><tspan class="cls-6" x="6.45278" y="0">r</tspan><tspan x="8.14068" y="0">a</tspan></text><text class="cls-7" transform="translate(8.86243 7.35254)">N<tspan class="cls-8" x="3.1529" y="0">e</tspan><tspan class="cls-9" x="5.55626" y="0">x</tspan><tspan class="cls-10" x="7.87884" y="0">x</tspan><tspan x="10.1615" y="0">us</tspan></text></svg>